<?xml version="1.0" encoding="UTF-8"?>
<svg version="1.1" xmlns="http://www.w3.org/2000/svg" width="300" height="300">
<path d="M0 0 C5.28 0 10.56 0 16 0 C15.330925 4.68352499 14.60843722 8.90648205 13.4375 13.4375 C13.16808594 14.48808594 12.89867187 15.53867188 12.62109375 16.62109375 C12.41613281 17.40613281 12.21117187 18.19117187 12 19 C12.66 19 13.32 19 14 19 C14.66 15.7 15.32 12.4 16 9 C21.61 9 27.22 9 33 9 C32.67 10.32 32.34 11.64 32 13 C32.99 13 33.98 13 35 13 C35.185625 11.1746875 35.185625 11.1746875 35.375 9.3125 C35.74531357 5.67108326 36.55147363 3.62131592 38 0 C43.28 0 48.56 0 54 0 C53.30260025 4.88179827 52.64344024 8.50793002 51 13 C51.99 13 52.98 13 54 13 C54.13277344 12.22914062 54.26554687 11.45828125 54.40234375 10.6640625 C54.57894531 9.66117188 54.75554687 8.65828125 54.9375 7.625 C55.11152344 6.62726562 55.28554687 5.62953125 55.46484375 4.6015625 C56 2 56 2 57 0 C62.28 0 67.56 0 73 0 C71.54559961 8.84760237 69.39823375 17.37334365 67 26 C67.99 26 68.98 26 70 26 C70.09796875 25.45214844 70.1959375 24.90429688 70.296875 24.33984375 C71.33959238 18.81164387 72.62554422 13.37415592 74.0625 7.9375 C74.2368457 7.27032959 74.41119141 6.60315918 74.59082031 5.91577148 C75.87721094 1.12278906 75.87721094 1.12278906 77 0 C79.86267567 -0.07325168 82.700719 -0.09238205 85.5625 -0.0625 C86.36880859 -0.05798828 87.17511719 -0.05347656 88.00585938 -0.04882812 C90.00393756 -0.03700518 92.00197783 -0.01906914 94 0 C92.375 6.5 92.375 6.5 91.84155273 8.62719727 C90.74130705 13.01831866 89.65222972 17.41195746 88.57421875 21.80859375 C86.18157968 31.52912937 83.7285607 41.19768203 80.82226562 50.77807617 C78.98762408 56.88353465 77.46549459 63.05109073 75.95385742 69.24316406 C73.74319024 78.2108175 71.18123459 87.07307893 68.58496094 95.93554688 C68.01467392 97.94821258 67.49600185 99.96788157 67 102 C68.32 102 69.64 102 71 102 C71.09339157 101.39926666 71.18678314 100.79853333 71.28300476 100.17959595 C72.75346737 91.40977702 75.05696759 82.90288654 77.39453125 74.3359375 C77.82844348 72.73337962 78.26200481 71.13072669 78.69523621 69.52798462 C79.6010852 66.18049083 80.50991009 62.83382523 81.42114258 59.48779297 C82.57510934 55.250206 83.72354818 51.01114741 84.86993885 46.77150536 C85.76498939 43.46259188 86.66208682 40.15423612 87.55985069 36.84605789 C87.98314668 35.28604211 88.40606582 33.72592402 88.82856178 32.16569138 C91.74641961 21.40012182 94.82421775 10.69258717 98 0 C103.61 0 109.22 0 115 0 C113.32784725 7.80337948 111.37409015 15.52477734 109.375 23.25 C109.20347412 23.91476349 109.03194824 24.57952698 108.85522461 25.26443481 C105.07730564 39.89123125 101.07179412 54.45250084 97 69 C97.99 69.33 98.98 69.66 100 70 C100.13047226 68.98066879 100.26094452 67.96133759 100.39537048 66.91111755 C100.95159246 63.31312992 101.72057727 59.93239331 102.67407227 56.42211914 C103.18448814 54.53095116 103.18448814 54.53095116 103.70521545 52.60157776 C104.07552272 51.24607942 104.44592176 49.89060616 104.81640625 48.53515625 C105.19648431 47.1327837 105.57619355 45.73031114 105.95555115 44.32774353 C106.9497681 40.65580482 107.94895618 36.98523714 108.94921875 33.31494141 C109.97113034 29.56169446 110.98828887 25.80716011 112.00585938 22.05273438 C113.99928169 14.70056002 115.99840078 7.34995333 118 0 C123.61 0 129.22 0 135 0 C133.875 7.875 133.875 7.875 132.80859375 11.83984375 C132.58623047 12.67451172 132.36386719 13.50917969 132.13476562 14.36914062 C131.90466797 15.21669922 131.67457031 16.06425781 131.4375 16.9375 C131.20353516 17.81212891 130.96957031 18.68675781 130.72851562 19.58789062 C130.15594751 21.72625725 129.57970405 23.86355903 129 26 C129.66 26 130.32 26 131 26 C131.25394531 24.96101563 131.50789062 23.92203125 131.76953125 22.8515625 C133.66073858 15.16876314 135.63898422 7.55525051 138 0 C143.28 0 148.56 0 154 0 C153.4138281 5.92909506 152.19595619 11.31580266 150.4375 17 C150.20353516 17.77472656 149.96957031 18.54945312 149.72851562 19.34765625 C149.15809962 21.2335214 148.57987197 23.1170209 148 25 C148.66 25.33 149.32 25.66 150 26 C150.1546875 24.2675 150.1546875 24.2675 150.3125 22.5 C150.86035113 17.98828481 152.2774879 14.19394251 154 10 C159.28 10 164.56 10 170 10 C169.67 11.98 169.34 13.96 169 16 C169.66 16 170.32 16 171 16 C171.12117187 15.43152344 171.24234375 14.86304688 171.3671875 14.27734375 C171.61855469 13.11912109 171.61855469 13.11912109 171.875 11.9375 C172.11863281 10.80634766 172.11863281 10.80634766 172.3671875 9.65234375 C173.1411467 6.40840366 174.08380771 3.20667302 175 0 C180.28 0 185.56 0 191 0 C190.354523 7.90709331 188.13002861 15.39133967 186 23 C187.14062924 20.78026924 188.11318895 18.675525 188.9375 16.3125 C189.288125 15.549375 189.63875 14.78625 190 14 C193.54674003 12.81775332 195.97522995 13.10670366 199.6875 13.4375 C200.86699219 13.53933594 202.04648438 13.64117187 203.26171875 13.74609375 C204.16535156 13.82988281 205.06898438 13.91367188 206 14 C205.67 16.97 205.34 19.94 205 23 C205.26478149 22.06148193 205.26478149 22.06148193 205.53491211 21.10400391 C206.33371081 18.2770813 207.13556672 15.45103491 207.9375 12.625 C208.21529297 11.64015625 208.49308594 10.6553125 208.77929688 9.640625 C209.04677734 8.69960937 209.31425781 7.75859375 209.58984375 6.7890625 C209.95903931 5.48509521 209.95903931 5.48509521 210.33569336 4.15478516 C211 2 211 2 212 0 C217.28 0 222.56 0 228 0 C227.40660203 6.0374793 226.12618642 11.51461504 224.375 17.3125 C221.89078519 25.75106482 219.6146771 34.22724267 217.4375 42.75 C215.43509009 50.54429132 213.41890069 58.33014152 211.1875 66.0625 C210.992771 66.7524707 210.79804199 67.44244141 210.59741211 68.15332031 C209.73795194 71.07041365 209.18637421 72.81362579 207 75 C204.03125 75.23046875 204.03125 75.23046875 200.5 75.1875 C199.3346875 75.18105469 198.169375 75.17460938 196.96875 75.16796875 C194 75 194 75 192 74 C192.144375 73.38511719 192.28875 72.77023438 192.4375 72.13671875 C192.623125 71.32847656 192.80875 70.52023438 193 69.6875 C193.185625 68.88699219 193.37125 68.08648437 193.5625 67.26171875 C194.09495823 64.89304062 194.09495823 64.89304062 194 62 C193.80664062 62.77085938 193.61328125 63.54171875 193.4140625 64.3359375 C193.15367187 65.33882813 192.89328125 66.34171875 192.625 67.375 C192.36976563 68.37273437 192.11453125 69.37046875 191.8515625 70.3984375 C191 73 191 73 189 75 C185.7421875 75.1953125 185.7421875 75.1953125 181.875 75.125 C179.95300781 75.09792969 179.95300781 75.09792969 177.9921875 75.0703125 C177.00476563 75.04710938 176.01734375 75.02390625 175 75 C173.36870113 70.93714243 174.70031223 67.79897816 175.9375 63.75 C176.31777344 62.48671875 176.69804687 61.2234375 177.08984375 59.921875 C177.39019531 58.95765625 177.69054687 57.9934375 178 57 C177.34 57 176.68 57 176 57 C175.89042969 57.6290625 175.78085938 58.258125 175.66796875 58.90625 C174.61950734 64.56623682 173.17168983 69.6694886 171 75 C166.05 75 161.1 75 156 75 C154.9195725 71.7587175 155.04405589 71.0476216 155.9609375 67.91015625 C156.18523437 67.12576172 156.40953125 66.34136719 156.640625 65.53320312 C156.88296875 64.71787109 157.1253125 63.90253906 157.375 63.0625 C157.84140736 61.44929434 158.30756181 59.83601553 158.7734375 58.22265625 C158.98403809 57.50859619 159.19463867 56.79453613 159.41162109 56.05883789 C159.98611831 54.04857441 160.50472569 52.03108168 161 50 C159.38274466 53.00950123 158.32417377 55.97103608 157.375 59.25 C156.92125 60.8175 156.4675 62.385 156 64 C150.72 64 145.44 64 140 64 C139.67 62.68 139.34 61.36 139 60 C138.72285156 60.99902344 138.44570312 61.99804688 138.16015625 63.02734375 C137.79444451 64.33077791 137.42854962 65.63416069 137.0625 66.9375 C136.88009766 67.59685547 136.69769531 68.25621094 136.50976562 68.93554688 C135.11328125 73.88671875 135.11328125 73.88671875 134 75 C131.46950598 75.07313567 128.96695163 75.09247527 126.4375 75.0625 C125.37112305 75.05573242 125.37112305 75.05573242 124.28320312 75.04882812 C122.52209987 75.03700864 120.76103964 75.01907263 119 75 C119.42089996 69.39538469 119.91613111 64.27913453 122 59 C121.01 59 120.02 59 119 59 C118.87303238 60.16946671 118.74606476 61.33893341 118.61524963 62.5438385 C118.10947711 66.56791911 117.22499353 70.38150899 116.15600586 74.29858398 C115.9695859 74.98767255 115.78316593 75.67676111 115.59109688 76.38673115 C114.97079663 78.67461112 114.34280278 80.96030514 113.71484375 83.24609375 C113.26556861 84.8975084 112.81680617 86.5490626 112.36851501 88.20074463 C111.40346208 91.752471 110.43508099 95.30326635 109.46405029 98.85336304 C107.92207565 104.49105652 106.38730858 110.13069514 104.85400391 115.77075195 C104.32630831 117.7115365 103.79859822 119.6523171 103.27087402 121.59309387 C103.00631912 122.56603708 102.74176422 123.53898029 102.4691925 124.54140663 C101.65275627 127.54282915 100.83557112 130.54404688 100.01818848 133.54521179 C96.09385849 147.95675883 92.19367451 162.37469996 88.30859375 176.796875 C87.90106904 178.3095505 87.90106904 178.3095505 87.48531151 179.85278511 C85.35454913 187.7625079 83.22502396 195.67256365 81.09562302 203.58265305 C79.60477894 209.12044953 78.11332954 214.65808228 76.62103462 220.19548798 C75.95952884 222.65094985 75.29882382 225.10662614 74.63816833 227.56231689 C71.8117824 238.05646408 68.92292194 248.53234214 66 259 C62 259 62 259 59.3515625 256.5078125 C58.42911288 255.39130287 57.52067821 254.26309824 56.625 253.125 C56.14933594 252.58875 55.67367187 252.0525 55.18359375 251.5 C53.17798027 248.97092728 51.98598477 247.11408594 52.02734375 243.82641602 C52.53171406 241.15736511 53.23548293 238.60673222 54 236 C54.57949925 233.73342383 55.15752443 231.46647047 55.734375 229.19921875 C56.40257807 226.69433009 57.07460587 224.19045931 57.75 221.6875 C58.10857009 220.34979633 58.46704881 219.01206817 58.82543945 217.67431641 C61.10000552 209.20952907 63.47248749 200.77590279 65.91870117 192.35913086 C67.84171769 185.69070126 69.53013967 178.97713585 71.17651367 172.23583984 C72.65376099 166.2403371 74.34145919 160.33355295 76.12744141 154.42382812 C77.97305701 148.24971887 79.51792267 142.01687213 81.04589844 135.7578125 C83.25665778 126.78983427 85.81867045 117.92724523 88.41503906 109.06445312 C88.98532608 107.05178742 89.50399815 105.03211843 90 103 C89.01 103 88.02 103 87 103 C86.78085938 103.8765625 86.56171875 104.753125 86.3359375 105.65625 C85.83815391 107.64738437 85.34030302 109.63850208 84.84155273 111.62939453 C83.7450292 116.00893666 82.65588166 120.39019987 81.57421875 124.7734375 C79.17948766 134.4540988 76.74857809 144.11377679 74.03540039 153.71044922 C71.94627903 161.1196474 69.97490135 168.55975352 68 176 C65.69669129 184.67260557 63.37265629 193.33745933 60.94458008 201.97607422 C57.50312116 214.28207223 54.27756455 226.64957971 51 239 C47 239 47 239 44.3515625 236.54296875 C37.37611969 228.33832899 37.37611969 228.33832899 36.5859375 223.42578125 C37.09096767 220.46706674 37.99235925 217.8301856 39 215 C39.65642112 212.76142193 40.27796527 210.51425046 40.90258789 208.26660156 C41.65606382 205.57659826 42.43828781 202.89599156 43.22265625 200.21484375 C45.28428259 193.09063696 47.17002085 185.92045635 49.0625 178.75 C51.56608904 169.27798747 54.14892544 159.84359722 56.96875 150.4609375 C58.39824327 145.66347146 59.71478164 140.83785449 61 136 C59.68 135.67 58.36 135.34 57 135 C56.81232056 136.49639008 56.81232056 136.49639008 56.62084961 138.02301025 C56.05447297 141.96967116 55.1077629 145.78691328 54.06640625 149.63183594 C53.77598953 150.72341759 53.77598953 150.72341759 53.47970581 151.83705139 C52.84451934 154.22054879 52.20359624 156.60246103 51.5625 158.984375 C51.11759266 160.64861453 50.6730177 162.31294295 50.22875977 163.97735596 C49.29980228 167.45447513 48.36825113 170.93088449 47.43457031 174.40673828 C46.23739315 178.86355523 45.0445432 183.32151488 43.85334778 187.77993393 C42.71609705 192.03594654 41.57696377 196.29145444 40.4375 200.546875 C40.11158371 201.76467274 40.11158371 201.76467274 39.77908325 203.00707245 C39.1649453 205.30023892 38.54949977 207.59305004 37.93359375 209.88574219 C37.66082108 210.90502556 37.66082108 210.90502556 37.38253784 211.94490051 C36.6523012 214.6584228 35.88893376 217.33319873 35 220 C34.01 220 33.02 220 32 220 C30.10960597 218.02029601 28.47069698 216.09717738 26.8125 213.9375 C26.34908203 213.37611328 25.88566406 212.81472656 25.40820312 212.23632812 C24.75174805 211.39038086 24.75174805 211.39038086 24.08203125 210.52734375 C23.48225464 209.76538696 23.48225464 209.76538696 22.87036133 208.98803711 C20.30808876 203.13541845 22.65757665 196.91697869 24.43359375 191.16796875 C24.99082707 189.29165514 25.54514703 187.41447482 26.09716797 185.53662109 C26.40209167 184.5006781 26.70701538 183.46473511 27.0211792 182.3973999 C28.88424415 175.93086723 30.60925266 169.42667607 32.34765625 162.92578125 C32.7337641 161.48524078 33.11994427 160.04471968 33.50619507 158.60421753 C34.49371723 154.9193713 35.47945592 151.23405041 36.46466064 147.54858398 C38.23588724 140.92370829 40.00995718 134.29959347 41.78515625 127.67578125 C41.97360422 126.97252716 42.16205219 126.26927307 42.35621071 125.54470825 C45.17937422 115.01325576 48.04504102 104.49524739 51 94 C51.33056396 92.82187744 51.66112793 91.64375488 52.00170898 90.42993164 C53.19207408 86.18958187 54.38430961 81.94976681 55.58007812 77.7109375 C57.13980626 72.15900634 58.63611211 66.60336209 60 61 C58.515 60.505 58.515 60.505 57 60 C56.81824219 60.99580078 56.81824219 60.99580078 56.6328125 62.01171875 C56.46523437 62.89472656 56.29765625 63.77773438 56.125 64.6875 C55.96257812 65.55761719 55.80015625 66.42773438 55.6328125 67.32421875 C55 70 55 70 53 75 C47.72 74.67 42.44 74.34 37 74 C39.23804497 64.97064617 41.49437822 55.95949608 44 47 C43.34 46.67 42.68 46.34 42 46 C41.74605469 47.11117187 41.49210937 48.22234375 41.23046875 49.3671875 C36.01612148 71.98387852 36.01612148 71.98387852 34 74 C31.30345146 74.07319621 28.63308542 74.09242537 25.9375 74.0625 C25.17888672 74.05798828 24.42027344 74.05347656 23.63867188 74.04882812 C21.75908129 74.0370068 19.87953101 74.01907078 18 74 C20.16677807 64.61796092 22.35919936 55.2628083 25 46 C22.85392982 46.7916437 22.85392982 46.7916437 22.32983398 48.75 C22.13719971 49.4925 21.94456543 50.235 21.74609375 51 C21.53146484 51.804375 21.31683594 52.60875 21.09570312 53.4375 C20.87849609 54.283125 20.66128906 55.12875 20.4375 56 C20.00158073 57.66742299 19.56292224 59.33413307 19.12109375 61 C18.83383423 62.11375 18.83383423 62.11375 18.54077148 63.25 C18 65 18 65 17 66 C14.30345146 66.07319621 11.63308542 66.09242537 8.9375 66.0625 C8.17888672 66.05798828 7.42027344 66.05347656 6.63867188 66.04882812 C4.75908129 66.0370068 2.87953101 66.01907078 1 66 C1.31182069 64.58318366 1.62448737 63.16655349 1.9375 61.75 C2.11152344 60.96109375 2.28554688 60.1721875 2.46484375 59.359375 C2.947556 57.23121297 3.46163178 55.11467158 4 53 C1.82731561 56.85019884 0.69863236 60.97748842 -0.5625 65.1875 C-2.86703125 72.86703125 -2.86703125 72.86703125 -4 74 C-6.53049402 74.07313567 -9.03304837 74.09247527 -11.5625 74.0625 C-12.27341797 74.05798828 -12.98433594 74.05347656 -13.71679688 74.04882812 C-15.47790013 74.03700864 -17.23896036 74.01907263 -19 74 C-19.13885826 70.00782514 -18.86512892 66.87910452 -17.5 63.125 C-17.2215625 62.34382813 -16.943125 61.56265625 -16.65625 60.7578125 C-16.4396875 60.17773438 -16.223125 59.59765625 -16 59 C-16.66 59 -17.32 59 -18 59 C-18.20496094 59.84304687 -18.40992187 60.68609375 -18.62109375 61.5546875 C-18.89050781 62.65039062 -19.15992187 63.74609375 -19.4375 64.875 C-19.70433594 65.96554688 -19.97117187 67.05609375 -20.24609375 68.1796875 C-21 71 -21 71 -22 73 C-27.28 73 -32.56 73 -38 73 C-36.63197418 64.8339709 -34.76064179 56.94316681 -32.55859375 48.96484375 C-32.23085464 47.76436905 -31.90311554 46.56389435 -31.56544495 45.32704163 C-30.87762254 42.81125511 -30.18756313 40.29607922 -29.49536133 37.78149414 C-28.43237948 33.91889335 -27.3767797 30.05437324 -26.32226562 26.18945312 C-25.65146889 23.73946632 -24.98025979 21.28959238 -24.30859375 18.83984375 C-23.99192245 17.68161606 -23.67525116 16.52338837 -23.34898376 15.33006287 C-23.0552034 14.26457718 -22.76142303 13.19909149 -22.45874023 12.10131836 C-22.20051987 11.16186874 -21.9422995 10.22241913 -21.67625427 9.25450134 C-21 7 -21 7 -20 5 C-17.453125 4.1484375 -17.453125 4.1484375 -14.25 3.375 C-13.20328125 3.11460938 -12.1565625 2.85421875 -11.078125 2.5859375 C-8.28706084 2.05464356 -5.82930789 1.8847319 -3 2 C-3.62286841 4.68800977 -4.24823207 7.3753992 -4.875 10.0625 C-5.04902344 10.81466797 -5.22304688 11.56683594 -5.40234375 12.34179688 C-6.47664764 16.93743017 -7.66534057 21.47297949 -9 26 C-6.74484913 25.15966907 -6.74484913 25.15966907 -6.13037109 22.59155273 C-5.84758301 21.54942627 -5.56479492 20.5072998 -5.2734375 19.43359375 C-4.9640625 18.30888672 -4.6546875 17.18417969 -4.3359375 16.02539062 C-3.86027344 14.24938477 -3.86027344 14.24938477 -3.375 12.4375 C-3.05015625 11.24962891 -2.7253125 10.06175781 -2.390625 8.83789062 C-1.58663309 5.89386142 -0.79240893 2.94716797 0 0 Z " fill="#73F04D" transform="translate(39,0)"/>
<path d="M0 0 C0.99 0 1.98 0 3 0 C3.51949219 0.9178125 4.03898438 1.835625 4.57421875 2.78125 C4.91001953 3.37204346 5.24582031 3.96283691 5.59179688 4.5715332 C6.32566031 5.86315247 7.05741376 7.15597274 7.78710938 8.44995117 C9.72182059 11.85760305 11.73658699 15.10980321 14 18.3125 C17.01985697 23.15367149 16.54512191 28.06954826 15.52636719 33.54614258 C14.86782818 36.29987004 14.13755163 39.02326485 13.375 41.75 C13.10357178 42.75442139 12.83214355 43.75884277 12.55249023 44.79370117 C10.54923606 52.15940587 8.45592371 59.50054967 6.33276367 66.83251953 C3.86447916 75.37751233 1.56299018 83.96590342 -0.72827148 92.55981445 C-1.01001221 93.61515381 -1.29175293 94.67049316 -1.58203125 95.7578125 C-1.83186768 96.6977002 -2.0817041 97.63758789 -2.33911133 98.60595703 C-2.83973454 100.41944472 -3.40507469 102.21522408 -4 104 C-35.02 104 -66.04 104 -98 104 C-101.7125 117.81875 -105.425 131.6375 -109.25 145.875 C-111.54119947 154.39856349 -113.83250688 162.922097 -116.125 171.4453125 C-116.40723419 172.49463078 -116.68946838 173.54394905 -116.98025513 174.62506485 C-122.3063203 194.42602678 -127.6329388 214.22683858 -132.97497559 234.02349854 C-133.81771814 237.14676079 -134.65957002 240.27026088 -135.50061035 243.39398193 C-143.74110663 273.99591211 -143.74110663 273.99591211 -148 288 C-152.69373625 287.17812989 -154.45033906 284.30761921 -157.125 280.625 C-157.56714844 280.03460938 -158.00929688 279.44421875 -158.46484375 278.8359375 C-164.01692904 271.38842733 -164.01692904 271.38842733 -163.859375 267.7734375 C-162.79764666 260.96533733 -160.94990878 254.2961164 -159.25 247.625 C-158.88126398 246.16377862 -158.51269423 244.70251527 -158.14428711 243.24121094 C-156.20215473 235.56601447 -154.18903483 227.91723474 -152.00488281 220.30712891 C-149.63528971 211.92406103 -147.59580698 203.45459622 -145.5 195 C-143.07993267 185.23732036 -140.66185491 175.48824878 -137.8828125 165.8203125 C-135.73767333 158.26125068 -133.88835546 150.62620921 -132 143 C-127.88238696 126.37083292 -127.88238696 126.37083292 -126.16470337 120.35998535 C-124.23428328 113.59622694 -122.41907132 106.8124619 -120.73046875 99.984375 C-120.52915344 99.17605225 -120.32783813 98.36772949 -120.12042236 97.53491211 C-119.08542612 93.3779351 -118.05738397 89.21928396 -117.03344727 85.05957031 C-116.84103958 84.2814801 -116.6486319 83.50338989 -116.45039368 82.70172119 C-116.08414073 81.22025623 -115.71987372 79.73829853 -115.35783386 78.25579834 C-114.11251976 73.22503952 -114.11251976 73.22503952 -113 71 C-81.65 71 -50.3 71 -18 71 C-17.67 68.69 -17.34 66.38 -17 64 C-16.68529125 62.52419039 -16.34562554 61.05329445 -15.97192383 59.59130859 C-15.77113724 58.7987265 -15.57035065 58.00614441 -15.36347961 57.18954468 C-15.14685165 56.35097931 -14.93022369 55.51241394 -14.70703125 54.6484375 C-14.36426399 53.30635727 -14.36426399 53.30635727 -14.01457214 51.93716431 C-13.52966052 50.04228393 -13.04291274 48.14787261 -12.55444336 46.25390625 C-11.82758409 43.43352963 -11.10764478 40.61145839 -10.38867188 37.7890625 C-7.14727378 25.12671511 -3.6528397 12.54954446 0 0 Z " fill="#73F04D" transform="translate(284,12)"/>
<path d="M0 0 C12.54 0 25.08 0 38 0 C37.32643485 5.38852117 36.72982767 9.46086455 35.15234375 14.46875 C34.82999756 15.50451172 34.50765137 16.54027344 34.17553711 17.60742188 C33.76698486 18.89197266 33.35843262 20.17652344 32.9375 21.5 C31.638125 25.625 30.33875 29.75 29 34 C39.23 34 49.46 34 60 34 C58.6617908 40.69104601 57.23842102 46.89095151 55.125 53.3125 C52.68151685 60.85626942 50.33269374 68.41874534 48 76 C35.46 76 22.92 76 10 76 C8.68787629 72.06362886 9.61730718 70.29639256 10.87109375 66.36328125 C11.0722731 65.72384079 11.27345245 65.08440033 11.48072815 64.42558289 C12.12476177 62.3851743 12.78094233 60.34890904 13.4375 58.3125 C13.876457 56.92929197 14.31461784 55.54583101 14.75195312 54.16210938 C15.82395517 50.77116553 16.91229274 47.38609843 18 44 C3.15 43.505 3.15 43.505 -12 43 C-12 36.25174312 -12 36.25174312 -10.86328125 32.8203125 C-10.61795654 32.06355225 -10.37263184 31.30679199 -10.11987305 30.52709961 C-9.85343994 29.73440674 -9.58700684 28.94171387 -9.3125 28.125 C-8.76262618 26.4415351 -8.21315426 24.75793889 -7.6640625 23.07421875 C-7.38594727 22.23036621 -7.10783203 21.38651367 -6.82128906 20.51708984 C-5.34602999 15.99571021 -3.9585193 11.44699786 -2.56176758 6.90087891 C-1.10852051 2.21704102 -1.10852051 2.21704102 0 0 Z " fill="#FAFAFA" transform="translate(182,172)"/>
<path d="M0 0 C12.21 0 24.42 0 37 0 C32.40123457 18.39506173 32.40123457 18.39506173 30.25 25 C29.13625 28.465 29.13625 28.465 28 32 C37.9 32 47.8 32 58 32 C54.76126789 45.47312559 50.92683314 58.70918015 47 72 C34.79 72 22.58 72 10 72 C10.64533119 66.8373505 11.18740351 62.79123191 12.62890625 57.96875 C12.91064697 57.01419922 13.1923877 56.05964844 13.48266602 55.07617188 C13.83901123 53.89603516 14.19535645 52.71589844 14.5625 51.5 C15.696875 47.705 16.83125 43.91 18 40 C8.43 40 -1.14 40 -11 40 C-10.29952982 34.39623854 -9.5714682 29.99899659 -7.96875 24.7265625 C-7.77277222 24.07674408 -7.57679443 23.42692566 -7.37487793 22.75741577 C-6.96436022 21.4003495 -6.55079913 20.04420034 -6.13427734 18.68896484 C-5.49569558 16.61099322 -4.86621218 14.53043106 -4.23828125 12.44921875 C-1.1726973 2.34539459 -1.1726973 2.34539459 0 0 Z " fill="#F9F9F9" transform="translate(206,129)"/>
<path d="M0 0 C28.05 0 56.1 0 85 0 C80.39864865 19.55574324 80.39864865 19.55574324 78.25 27.0625 C77.91935547 28.23522461 77.91935547 28.23522461 77.58203125 29.43164062 C77.05795703 31.28868622 76.52952263 33.14450063 76 35 C56.31596585 35.86939937 36.69932903 36.1301806 17 36 C16.62713867 35.2793335 16.25427734 34.55866699 15.87011719 33.81616211 C14.16493103 30.52248549 12.45748539 27.22998522 10.75 23.9375 C10.16347656 22.80376953 9.57695312 21.67003906 8.97265625 20.50195312 C5.42380862 13.63909584 5.42380862 13.63909584 1.578125 6.94140625 C-0 4 -0 4 0 0 Z " fill="#73F04D" transform="translate(0,83)"/>
<path d="M0 0 C12.54 0 25.08 0 38 0 C37.3226032 5.41917439 36.83089958 9.11760113 35 14 C34 10 34 10 36 2 C18.675 2.495 18.675 2.495 1 3 C0.01 5.97 -0.98 8.94 -2 12 C-3 8 -3 8 0 0 Z " fill="#D7D7D7" transform="translate(182,172)"/>
</svg>
